# xmcd
#
# Track frame offsets: 
#        150
#        13058
#        24690
#        38100
#        52508
#        66642
#        83179
#        101944
#        121413
#        156150
#        174781
#        193089
#        214722
#        237497
#        262292
#
# Disc length: 3758 seconds
#
# Revision: 1
# Processed by: cddbd v1.5.2PL0 Copyright (c) Steve Scherf et al.
# Submitted via: ExactAudioCopy v1.1
#
DISCID=d40eac0f
DTITLE=Various Artist - Poptastic (The People)
DYEAR=2005
DGENRE=Pop
TTITLE0=Right Said Fred - I'm Too Sexy
TTITLE1=Bucks Fizz - Making Your Mind Up
TTITLE2=Pilot - Magic
TTITLE3=Tony Christie - Is This The Way To Amarillo
TTITLE4=Sinitta - Right Back Where We Started From
TTITLE5=Aswad - Shine (Beatmasters 7" Mix)
TTITLE6=Sister Sledge - Frankie
TTITLE7=Starship - Nothing's Gonna Stop Us Now
TTITLE8=The Rescue Team - Unlike Me
TTITLE9=Awkward Arnold - LV
TTITLE10=The Truth - Behind The Times
TTITLE11=Andrea - Lather
TTITLE12=Leon - Windmill
TTITLE13=The Changers - Suburbs
TTITLE14=Carefree - Heaven Sent
EXTD=
EXTT0=
EXTT1=
EXTT2=
EXTT3=
EXTT4=
EXTT5=
EXTT6=
EXTT7=
EXTT8=
EXTT9=
EXTT10=
EXTT11=
EXTT12=
EXTT13=
EXTT14=
PLAYORDER=
